<svg width="193" height="56" viewBox="0 0 193 56" fill="none" xmlns="http://www.w3.org/2000/svg">
<path d="M21.6365 20.6352C23.4929 21.3315 24.3891 22.2177 24.3891 23.357C24.3891 24.4964 23.941 25.9522 23.0448 27.598C22.1486 29.307 21.4444 30.1299 20.8043 30.1299C20.6123 30.1299 20.4202 30.0666 20.2282 29.8767C20.0362 29.6868 19.524 29.4969 18.7559 29.307C17.9877 29.1172 17.2836 28.9906 16.7075 28.9906C14.7871 28.9906 13.2507 29.6868 12.0345 31.0161C10.8823 32.3454 10.2421 34.4342 10.2421 37.2193C10.2421 40.0044 10.8182 42.03 12.0345 43.4225C13.2507 44.7518 14.7871 45.4481 16.6434 45.4481C17.4116 45.4481 18.2438 45.3215 19.204 45.1316C20.1642 44.9417 20.8043 44.6252 21.2524 44.2454C21.3164 44.1821 21.4444 44.1188 21.6365 44.1188C21.8285 44.1188 22.2126 44.4986 22.7887 45.2582C23.3648 46.0177 23.8129 46.9672 24.325 48.1699C24.7731 49.3725 25.0292 50.322 25.0292 50.955C25.0292 52.221 24.005 53.2337 22.0206 53.9933C20.0362 54.7529 17.6677 55.1327 14.9151 55.1327C10.4982 55.1327 6.91343 53.6135 4.09685 50.5752C1.40829 47.4103 0 43.106 0 37.5358C0 31.9656 1.47231 27.598 4.3529 24.3698C7.2335 21.2049 10.8823 19.5591 15.2352 19.5591C17.6677 19.6224 19.8441 19.9389 21.6365 20.6352Z" fill="#70331B"/>
<path d="M37.0637 54.2465C37.0637 54.563 35.6554 54.6896 32.9028 54.6896C30.1502 54.6896 28.742 54.4364 28.742 53.9933V20.1921C28.742 19.9389 29.2541 19.8124 30.2783 19.6858C31.3025 19.5592 32.1987 19.5592 32.9028 19.5592C35.7194 19.5592 37.0637 19.8756 37.0637 20.4453V30.3198C38.9201 29.7502 40.3284 29.497 41.2886 29.497C43.7851 29.497 45.8335 30.1932 47.2418 31.5225C48.7141 32.8518 49.4182 35.3204 49.4182 38.9284V54.1832C49.4182 54.4997 48.138 54.6263 45.5134 54.6263C42.5688 54.4997 41.0965 54.3731 41.0965 54.1199V39.6247C41.0965 38.0422 40.5844 37.2193 39.4962 37.2193C38.792 37.2193 37.8958 37.5358 36.9356 38.2321V54.2465H37.0637Z" fill="#70331B"/>
<path d="M72.527 53.2338C70.4146 54.4364 67.726 55.0694 64.4614 55.0694C61.1967 55.0694 58.3801 53.93 56.1396 51.7146C53.8992 49.4992 52.7469 46.3976 52.7469 42.4731C52.7469 38.5486 53.8352 35.3837 56.0116 32.9784C58.1881 30.573 60.9406 29.3704 64.2693 29.3704C67.598 29.3704 70.1585 30.1933 71.9509 31.9023C73.7433 33.5481 74.6395 35.6369 74.6395 38.0422C74.6395 43.3593 71.5668 46.0178 65.3575 46.0178H61.9008C61.9008 47.0305 62.1569 47.6635 62.733 48.0433C63.3091 48.4231 64.0773 48.613 65.1655 48.613C67.47 48.613 69.7104 48.1066 71.8229 47.0305C71.8869 46.9672 72.0149 47.2204 72.271 47.7268C73.0391 49.1194 73.4872 50.322 73.4872 51.2715C73.4872 52.2843 73.1672 52.9173 72.527 53.2338ZM66.3177 38.9917C66.3177 37.5991 65.6136 36.9028 64.2693 36.9028C63.6292 36.9028 63.1171 37.0927 62.669 37.4725C62.2209 37.8523 61.9648 38.422 61.9648 39.1183V40.6374H64.6534C65.7416 40.6374 66.3177 40.1311 66.3177 38.9917Z" fill="#70331B"/>
<path d="M79.8886 36.4597H77.456C76.9439 36.4597 76.6879 35.3837 76.6879 33.1682C76.6879 30.9528 76.9439 29.8767 77.456 29.8767H79.8886V28.8007C79.8886 25.3193 80.6567 22.914 82.129 21.5847C83.6013 20.2554 85.6497 19.5592 88.3383 19.5592C91.0269 19.5592 93.3313 20.0655 95.3798 21.015C95.6358 21.1416 95.7638 21.4581 95.7638 22.0911C95.7638 22.7241 95.5078 23.6735 94.9317 25.0028C94.3556 26.3321 93.9075 27.0916 93.4594 27.3448C92.3071 26.6485 91.1549 26.3321 89.9386 26.3321C88.6584 26.3321 88.0182 27.2182 88.0182 28.9273V29.94H92.1791C92.7552 29.94 93.0753 31.0161 93.0753 33.1049C93.0753 35.3837 92.6912 36.5863 91.923 36.5863H88.7224V54.0566C88.7224 54.4364 87.2501 54.6263 84.3055 54.6263C81.3609 54.6263 79.8886 54.4364 79.8886 54.0566V36.4597Z" fill="#70331B"/>
<path d="M103.573 42.3465C103.573 45.5747 104.79 47.1572 107.286 47.1572C108.887 47.1572 110.231 46.8407 111.255 46.2077C111.767 46.2077 112.151 47.0306 112.471 48.7396C112.791 50.4487 112.919 51.588 112.919 52.221C112.919 52.854 112.855 53.2338 112.663 53.4237C110.871 54.4998 108.502 55.0694 105.43 55.0694C102.357 55.0694 99.7967 53.9301 97.6202 51.7146C95.5078 49.4359 94.4196 46.3976 94.4196 42.4731C94.4196 38.5486 95.4438 35.447 97.5562 33.0417C99.6686 30.6364 102.485 29.4337 106.006 29.4337C109.527 29.4337 111.959 30.2566 113.303 31.9656C113.624 32.3454 113.752 32.8518 113.752 33.5481C113.752 34.2444 113.624 35.1305 113.368 36.1433C112.791 38.2321 111.959 39.4348 110.999 39.8146C110.871 39.8779 110.679 39.8779 110.423 39.8779C110.167 39.8779 109.847 39.688 109.527 39.3082C108.246 38.0423 107.222 37.4093 106.39 37.4093C105.622 37.4093 104.918 37.7891 104.342 38.6119C103.83 39.3082 103.573 40.5742 103.573 42.3465Z" fill="#70331B"/>
<path d="M125.658 27.155C125.658 27.4081 124.122 27.4714 121.113 27.4714C118.04 27.4714 116.568 27.3449 116.568 27.155V20.1289C116.568 19.8124 118.104 19.6225 121.113 19.6225C124.186 19.6225 125.658 19.7491 125.658 19.939V27.155ZM125.658 54.2465C125.658 54.4997 124.122 54.6263 121.113 54.6263C118.04 54.6263 116.568 54.4997 116.568 54.3098V30.13C116.568 29.8768 118.104 29.8135 121.113 29.8135C124.186 29.8135 125.658 29.9401 125.658 30.13V54.2465Z" fill="#70331B"/>
<path d="M141.597 54.2465C141.597 54.6263 140.189 54.8162 137.436 54.8162C134.108 54.6896 132.443 54.4997 132.443 54.1832V36.7762H129.883C129.243 36.7762 128.859 35.6369 128.859 33.3581C128.859 32.7885 128.923 32.0289 129.051 31.206C129.179 30.3831 129.435 29.94 129.755 29.94H132.379V25.5725C132.379 24.9395 133.788 24.5597 136.604 24.5597C139.421 24.5597 140.829 24.8129 140.829 25.3193V28.4842L140.893 29.8767H145.118C145.694 29.8767 145.95 31.0161 145.95 33.3581C145.95 35.6369 145.694 36.8395 145.118 36.8395H141.597V54.2465Z" fill="#70331B"/>
<path d="M150.687 51.6513C148.639 49.3726 147.551 46.271 147.551 42.2199C147.551 38.2321 148.575 35.0672 150.687 32.7885C152.736 30.5097 155.552 29.3704 159.073 29.3704C162.594 29.3704 165.41 30.5097 167.459 32.7885C169.507 35.0672 170.531 38.1688 170.531 42.2199C170.531 46.2077 169.507 49.3726 167.459 51.6513C165.41 53.93 162.594 55.0694 159.073 55.0694C155.552 55.0694 152.736 53.93 150.687 51.6513ZM159.073 37.6624C157.217 37.6624 156.256 39.1816 156.256 42.2199C156.256 45.2582 157.217 46.7774 159.073 46.7774C160.929 46.7774 161.89 45.2582 161.89 42.2199C161.89 39.1816 160.993 37.6624 159.073 37.6624Z" fill="#70331B"/>
<path d="M175.14 45.7013C177.829 47.2838 179.941 48.1066 181.542 48.1066C182.566 48.1066 183.014 47.7901 183.014 47.0939C183.014 46.5875 182.118 45.9545 180.389 45.1949C176.229 43.5492 174.18 40.7641 174.18 36.9662C174.18 34.5608 175.076 32.6619 176.869 31.3959C178.661 30.13 180.837 29.497 183.334 29.497C185.831 29.497 187.943 29.7502 189.735 30.2566C191.464 30.763 192.36 31.4592 192.36 32.3454C192.36 33.0417 191.976 33.9912 191.272 35.1938C190.567 36.3965 190.055 37.0295 189.799 37.0928C188.391 36.3332 186.855 35.8901 185.19 35.8901C184.294 35.8901 183.846 36.2066 183.846 36.8396C183.846 37.2194 184.038 37.5991 184.358 37.8523C184.678 38.1055 185.318 38.4853 186.279 38.8651C187.239 39.3082 188.007 39.6247 188.583 40.0045C189.223 40.321 189.863 40.7641 190.631 41.397C192.232 42.663 193 44.2454 193 46.271C193 48.9295 192.104 51.0183 190.375 52.6641C188.583 54.3098 185.959 55.1327 182.374 55.1327C180.005 55.1327 177.893 54.7529 175.972 53.9301C174.052 53.1705 173.092 52.0311 173.092 50.7019C173.092 49.7524 173.348 48.8029 173.796 47.7901C174.18 46.7141 174.628 46.0178 175.14 45.7013Z" fill="#70331B"/>
<path d="M92.5632 9.55801C92.5632 9.62131 92.5632 9.68461 92.5632 9.74791C92.5632 9.8745 92.5632 9.9378 92.5632 10.0011C92.5632 10.0644 92.5632 10.1277 92.4992 10.2543C92.4992 10.3176 92.4352 10.3809 92.3711 10.4442C92.3071 10.5708 92.1151 10.6341 91.9871 10.6974C91.731 10.7607 91.539 10.824 91.2829 10.824C91.1549 10.824 91.0269 10.824 90.8988 10.824C90.7708 10.824 90.6428 10.824 90.5148 10.824H90.4508C89.6826 10.824 88.8504 10.824 88.0182 10.824C87.8262 10.824 87.5701 10.824 87.3141 10.824C87.058 10.824 86.802 10.824 86.5459 10.824C86.2899 10.824 86.0978 10.7607 85.9058 10.6341C85.7138 10.5075 85.5857 10.3809 85.4577 10.191C85.4577 10.1277 85.3937 10.0644 85.3937 10.0644C85.3937 10.0011 85.3937 10.0011 85.3937 9.9378C85.3297 9.62131 85.3297 9.24152 85.3297 8.92503C85.3297 8.60854 85.3297 8.29205 85.3297 7.91226V5.69683V3.67129C85.3297 3.2915 85.3297 2.97501 85.3297 2.72182C85.3297 2.46863 85.3297 2.15213 85.3297 1.77235V1.70905C85.3297 1.58245 85.3297 1.51915 85.3297 1.39256C85.3297 1.26596 85.3297 1.20266 85.3297 1.07607C85.3297 0.822875 85.3937 0.632981 85.5217 0.506385C85.5857 0.379789 85.7138 0.253192 85.8418 0.126596C85.9698 0.0632981 86.1619 0 86.2899 0C86.3539 0 86.4179 0 86.4819 0C86.5459 0 86.6099 0 86.674 0C86.738 0 86.802 0 86.866 0.0632981C86.93 0.0632981 86.994 0.126596 87.058 0.189894C87.1221 0.253192 87.1861 0.31649 87.2501 0.443087C87.3141 0.569683 87.3141 0.696279 87.3141 0.759577C87.3141 0.822875 87.3141 0.886173 87.3141 0.949471C87.3141 1.01277 87.3141 1.07607 87.3141 1.13937C87.3141 1.20266 87.3141 1.26596 87.3141 1.32926C87.3141 1.39256 87.3141 1.45586 87.3141 1.51915V1.77235L87.2501 8.92503H90.2587H90.9629C91.0269 8.92503 91.0909 8.92503 91.1549 8.92503C91.2189 8.92503 91.2829 8.92503 91.3469 8.92503C91.4109 8.92503 91.475 8.92503 91.539 8.92503C91.603 8.92503 91.667 8.92503 91.731 8.98833C91.859 8.98833 91.9231 9.05163 91.9871 9.11492C92.4992 9.36812 92.5632 9.43142 92.5632 9.55801Z" fill="#70331B"/>
<path d="M94.9957 3.86116C95.3157 3.67127 95.6998 3.60797 96.0839 3.48137C96.468 3.35478 96.7881 3.41808 97.1721 3.41808C97.5562 3.48137 97.8763 3.54467 98.2604 3.73457C98.5804 3.86116 98.9005 4.11436 99.2206 4.36755C99.4766 4.62074 99.6687 4.87393 99.8607 5.19042C100.053 5.50691 100.181 5.8234 100.245 6.13989C100.437 6.70958 100.437 7.27926 100.309 7.84894C100.181 8.41862 99.9887 8.92501 99.6687 9.43139C99.5406 9.68459 99.3486 9.87448 99.1565 10.0011C98.9645 10.191 98.7085 10.3176 98.5164 10.4442C98.1963 10.5708 97.8763 10.6974 97.4922 10.7607C97.1081 10.824 96.7881 10.824 96.468 10.824C95.8279 10.824 95.3157 10.6341 94.8677 10.3809C94.4196 10.1277 94.0355 9.74788 93.7154 9.3048C93.3953 8.86171 93.2673 8.41862 93.1393 7.84894C93.0753 7.27926 93.0753 6.77288 93.2673 6.20319C93.4594 5.57021 93.6514 5.12712 93.9715 4.74734C94.2275 4.30425 94.5476 4.05106 94.9957 3.86116ZM95.4438 5.8867C95.3158 6.0133 95.1877 6.20319 95.0597 6.39309C94.9957 6.58298 94.9317 6.83617 94.9317 7.02607C94.9317 7.27926 94.9317 7.46915 94.9957 7.72235C95.0597 7.97554 95.1237 8.16543 95.2517 8.35533C95.3798 8.48192 95.5078 8.60852 95.8279 8.73512C96.0839 8.86171 96.34 8.92501 96.66 8.92501C96.9801 8.92501 97.3002 8.86171 97.4922 8.67182C97.7483 8.48192 97.9403 8.22873 98.0683 7.91224C98.1963 7.59575 98.2604 7.27926 98.2604 6.96277C98.2604 6.64628 98.1323 6.32979 98.0043 6.0133C97.8763 5.8234 97.6842 5.63351 97.4922 5.57021C97.3002 5.44362 97.0441 5.44362 96.7881 5.44362C96.532 5.44362 96.34 5.44362 96.0839 5.57021C95.8279 5.69681 95.6358 5.69681 95.4438 5.8867Z" fill="#70331B"/>
<path d="M105.238 8.03882C105.046 7.91222 104.854 7.84893 104.598 7.72233C104.342 7.65903 104.086 7.59573 103.83 7.53244C103.573 7.46914 103.317 7.40584 103.125 7.34254C102.869 7.27924 102.677 7.15265 102.485 7.02605C102.037 6.70956 101.845 6.32977 101.781 5.88669C101.717 5.4436 101.845 4.93721 102.101 4.49413C102.229 4.24094 102.421 4.05104 102.677 3.92444C102.933 3.79785 103.189 3.67125 103.445 3.54466C103.701 3.41806 104.022 3.41806 104.342 3.41806C104.662 3.41806 104.918 3.41806 105.174 3.48136C105.366 3.48136 105.558 3.54466 105.75 3.60795C105.942 3.67125 106.134 3.73455 106.326 3.79785C106.518 3.86115 106.646 3.98774 106.774 4.11434C106.902 4.24094 107.03 4.43083 107.094 4.62072C107.158 4.74732 107.158 4.87392 107.094 5.00051C107.094 5.12711 107.03 5.2537 106.966 5.317C106.902 5.3803 106.774 5.4436 106.646 5.5069C106.518 5.5702 106.39 5.5702 106.262 5.5069C106.134 5.5069 105.942 5.4436 105.814 5.3803C105.686 5.317 105.558 5.2537 105.43 5.19041C105.302 5.12711 105.174 5.06381 105.046 5.00051C104.918 4.93721 104.79 4.93721 104.598 4.93721C104.342 4.93721 104.15 4.93721 104.022 5.06381C103.894 5.12711 103.766 5.25371 103.701 5.3803C103.637 5.5069 103.637 5.63349 103.701 5.82339C103.766 5.94998 103.894 6.07658 104.15 6.20318C104.342 6.32977 104.534 6.39307 104.79 6.45637C105.046 6.51967 105.238 6.58296 105.494 6.64626C105.75 6.70956 105.942 6.77286 106.198 6.83616C106.454 6.89946 106.646 7.02605 106.774 7.15265C107.094 7.40584 107.35 7.72233 107.414 8.10212C107.478 8.48191 107.478 8.7984 107.35 9.17819C107.222 9.55798 107.03 9.87447 106.71 10.1277C106.39 10.3809 106.07 10.5707 105.622 10.6973C105.302 10.7606 104.982 10.7606 104.662 10.7606C104.342 10.7606 103.958 10.6973 103.637 10.634C103.317 10.5707 102.997 10.4441 102.677 10.3176C102.357 10.191 102.101 10.0011 101.909 9.74787C101.781 9.55798 101.717 9.43138 101.717 9.17819C101.717 8.98829 101.781 8.7984 101.845 8.6085C101.909 8.48191 102.037 8.35531 102.229 8.29201C102.421 8.22872 102.549 8.29201 102.805 8.41861C102.997 8.54521 103.189 8.6085 103.381 8.7351C103.637 8.8617 103.83 8.92499 104.086 8.98829C104.342 9.05159 104.534 9.05159 104.726 9.05159C104.918 9.05159 105.11 8.98829 105.302 8.92499C105.558 8.7984 105.622 8.6085 105.686 8.41861C105.43 8.29201 105.366 8.10212 105.238 8.03882Z" fill="#70331B"/>
</svg>
